<svg width="54" height="20" viewBox="0 0 54 20" fill="none" xmlns="http://www.w3.org/2000/svg">
<path d="M0.978769 18.03C0.668728 18.7483 0.952932 19.1648 1.13379 19.2833C1.20269 19.3643 1.38701 19.5264 1.57303 19.5264C1.80556 19.5264 1.88307 19.4329 2.03809 19.2833C2.16211 19.1635 2.38258 18.9341 2.47732 18.8344L3.48495 17.6747C3.89834 17.2133 5.00933 16.1409 6.14614 15.5423C7.28296 14.9437 7.99778 14.6569 8.21309 14.5884C8.72121 14.4512 9.8098 14.1581 10.0992 14.0833C10.3885 14.0085 10.9776 13.9275 11.236 13.8963L12.6829 13.8402C12.8637 13.8339 13.3081 13.8065 13.6388 13.7466C14.0522 13.6718 14.4398 13.5596 14.8531 13.3912C15.2665 13.2229 15.1374 13.3351 15.9125 12.8488C16.6876 12.3625 17.0234 11.9697 17.2301 11.7639C17.3955 11.5993 17.7296 11.1965 17.876 11.0157C17.9966 10.7726 18.2481 10.2713 18.2894 10.2114C18.3308 10.1516 18.41 10.1865 18.4445 10.2114C18.9009 10.7289 19.9223 11.8313 20.3564 12.1006C20.8954 12.4351 21.1539 12.4927 21.4866 12.5668L21.4932 12.5682C21.7619 12.6281 22.1563 12.5932 22.32 12.5682C22.4233 12.5433 22.6507 12.4822 22.7334 12.4373C22.816 12.3924 22.8367 12.456 22.8367 12.4934C23.0606 13.3725 24.0304 15.4226 26.118 16.5898C28.7275 18.0488 31.1045 18.4977 31.5954 18.6473C32.0863 18.7969 35.5484 19.4329 36.4785 19.3581C37.4087 19.2833 37.3053 19.2085 37.5379 18.8718C37.7704 18.5351 37.6412 18.348 37.6412 18.0862C37.6412 17.8243 37.2795 17.6185 37.0728 17.525C36.8661 17.4315 36.2202 17.2819 36.091 17.2631C35.9618 17.2444 34.9542 17.0387 34.6441 16.9826C34.3341 16.9265 33.6623 16.5711 33.4556 16.4588C33.2489 16.3466 33.0423 16.1596 32.4997 15.6919C32.0656 15.3178 31.337 14.5135 31.027 14.1581C30.5878 13.6219 29.6783 12.5271 29.5543 12.4373C29.4303 12.3475 29.5026 12.2627 29.5543 12.2315L30.6911 10.7539C30.9236 10.386 31.4094 9.48942 31.492 8.84597C31.5747 8.20253 31.4576 7.58028 31.3887 7.34959C31.3198 6.97549 31.1665 6.18615 31.1045 6.02154C31.027 5.81579 31.0787 4.78702 31.1045 4.6748C31.1303 4.56257 31.182 4.37552 31.3887 4.28199C31.5954 4.18847 31.6471 4.20717 31.9829 4.24458C32.2516 4.27451 32.4566 4.43163 32.5255 4.50645C32.5514 4.53763 32.6909 4.67105 33.0423 4.95537C33.4815 5.31076 33.6365 5.62874 34.4374 6.43305C35.2384 7.23736 35.7809 7.51793 36.1427 7.70498C36.5044 7.89203 37.2536 8.06037 37.7445 8.11648C38.1373 8.16138 38.8039 8.09778 39.0881 8.06037L39.3723 7.98555C39.3981 7.98555 39.4601 7.99303 39.5014 8.02296C39.1397 8.25989 38.3595 9.03302 38.1321 10.2301C37.8479 11.7265 38.3646 11.9323 39.0105 12.8675C39.6502 13.7937 40.3152 14.3714 40.579 14.6005L40.5866 14.6071C40.7933 14.7866 41.0517 14.8814 41.155 14.9063C41.2584 14.925 41.5219 14.925 41.7492 14.7754C42.0335 14.5884 42.1885 14.2891 42.2402 14.1769C42.2815 14.0871 42.3263 13.8152 42.3435 13.6905C42.3607 13.5159 42.4003 13.0845 42.421 12.7553C42.4468 12.3438 42.421 12.6056 42.8086 12.1567C43.1961 11.7078 43.0669 11.82 43.1961 11.6704C43.3253 11.5208 43.2995 11.3898 43.3511 11.2963C43.4028 11.2028 43.2995 11.2215 43.3511 10.9409C43.3925 10.7165 43.2995 10.4858 43.2478 10.3985C43.0841 9.93085 42.7569 8.97691 42.7569 8.90209C42.7569 8.80856 42.7052 8.69633 42.8086 8.64022C42.9119 8.58411 42.9894 8.60281 43.1186 8.58411C43.2219 8.56914 43.2478 8.65269 43.2478 8.69633L43.9712 10.0057C44.264 10.492 44.9375 11.5544 45.2889 11.9136C45.7281 12.3625 46.1157 12.4934 46.374 12.6056C46.6324 12.7179 46.6324 12.6805 46.8649 12.6805C47.0975 12.6805 46.9941 12.6431 47.4075 12.7553C47.8209 12.8675 47.8726 13.1107 48.0018 13.1855C48.1309 13.2603 48.751 14.0459 49.7845 15.2617C50.818 16.4775 51.9031 16.8703 52.0323 16.9265C52.1615 16.9826 52.7299 17.0948 53.0658 17.0948C53.4016 17.0948 53.4533 16.9639 53.5825 16.8703C53.6858 16.7955 53.7289 16.6646 53.7375 16.6085C53.7634 16.4651 53.8099 16.1521 53.7892 16.0473C53.7685 15.9426 53.6428 15.8042 53.5825 15.7481L50.3012 12.5682L47.6659 10.0057C46.3913 8.7088 43.7283 6.09262 43.2736 6.00284C42.7052 5.89061 42.5502 5.98413 42.2143 6.05895C41.8784 6.13377 41.5167 6.39564 41.4134 6.43305C41.31 6.47046 41.3359 6.43305 41.31 6.43305C41.2842 6.43305 41.2584 6.32082 41.2067 6.26471C41.155 6.20859 41.0775 6.09636 40.9225 6.05895C40.7675 6.02154 40.7675 6.05895 40.5349 6.05895C40.3024 6.05895 39.579 6.04025 38.9847 5.94672C38.3905 5.8532 37.2795 5.44169 37.1761 5.40428C37.0935 5.37436 36.625 5.11748 36.401 4.99278C36.2891 4.91172 35.9618 4.66357 35.5484 4.3194C35.135 3.97523 34.5149 3.29063 34.2566 2.99135C33.6623 2.23693 32.2878 0.746774 31.5437 0.821593C30.6136 0.915117 30.6653 1.00864 30.5102 1.06476C30.3552 1.12087 30.0969 1.2518 29.5284 1.81295C29.0737 2.26187 28.8567 2.56114 28.805 2.65467C28.5639 3.02876 27.9576 3.93408 27.4615 4.56256C26.8414 5.34816 26.4022 5.64744 26.273 5.75967C26.1438 5.8719 25.6788 6.2647 24.1544 7.53663C22.63 8.80856 22.8884 8.69633 22.63 8.95819C22.3717 9.22006 22.2683 9.48193 22.2166 9.61286C22.1753 9.71761 22.165 9.81862 22.165 9.85603V10.4733C22.1822 10.573 22.1805 10.7576 22.0358 10.6977C21.8911 10.6379 21.8549 10.573 21.8549 10.5481L21.4415 10.0992L20.899 9.48193L20.3305 8.75244L19.788 7.74238L18.8062 6.32081C18.6167 6.10259 18.1448 5.66241 17.7727 5.64744C17.3076 5.62874 17.3852 5.68485 17.1268 5.79708C16.8684 5.90931 16.7651 6.02154 16.6617 6.09636C16.5584 6.17118 16.4034 6.33952 16.2742 6.43304C16.1708 6.50786 15.4905 7.12512 15.1632 7.4244C15.0512 7.51792 14.7911 7.73864 14.6465 7.87332C14.5018 8.00799 13.0704 8.81479 12.3728 9.20136C11.0896 9.96202 8.24926 11.6218 7.15378 12.1754C5.78443 12.8675 4.54426 13.6905 4.02753 14.0085C3.61414 14.2629 3.18352 14.738 3.01989 14.9437L2.08977 16.197C1.84862 16.5087 1.28881 17.3118 0.978769 18.03Z" fill="#E4002B"/>
</svg>
